<svg aria-hidden="true" style="width:0;height:0;position:absolute;overflow:hidden" xmlns="http://www.w3.org/2000/svg"><defs><symbol id="icon-film" viewBox="0 0 32 32"><path fill="none" stroke="#fff" style="stroke:var(--color1,#fff)" stroke-linejoin="round" stroke-linecap="round" stroke-width="2.667" d="M26.427 2.667H5.574a2.907 2.907 0 0 0-2.907 2.907v20.853a2.907 2.907 0 0 0 2.907 2.907v0h20.853a2.907 2.907 0 0 0 2.907-2.907v0V5.574a2.907 2.907 0 0 0-2.907-2.907v0zm-17.094 0v26.667M22.667 2.667v26.667M2.667 16h26.667M2.667 9.333h6.667M2.667 22.667h6.667m13.333 0h6.667M22.667 9.333h6.667"/></symbol><symbol id="icon-search-2" viewBox="0 0 32 32"><path fill="none" stroke="#fff" style="stroke:var(--color1,#fff)" stroke-linejoin="round" stroke-linecap="round" stroke-width="2.667" d="M14.667 25.333c5.891 0 10.667-4.776 10.667-10.667S20.558 3.999 14.667 3.999v0C8.776 3.999 4 8.775 4 14.666s4.776 10.667 10.667 10.667v0zM28 28l-5.8-5.8"/></symbol><symbol id="icon-Group" viewBox="0 0 32 32"><path fill="#ff6b08" style="fill:var(--color2,#ff6b08)" d="m16 30.583-2.24-2.24C5.44 20.983 0 16.023 0 9.943c0-4.96 3.84-8.8 8.8-8.8 2.72 0 5.44 1.28 7.2 3.36 1.76-2.08 4.48-3.36 7.2-3.36 4.96 0 8.8 3.84 8.8 8.8 0 6.08-5.44 11.04-13.76 18.4L16 30.583z"/></symbol><symbol id="icon-arrow-right" viewBox="0 0 32 32"><path stroke-linejoin="round" stroke-linecap="round" stroke-width="2.666" d="M6.666 16h18.668M16 25.334 25.334 16 16 6.666"/></symbol><symbol id="icon-arrow-left" viewBox="0 0 32 32"><path stroke-linejoin="round" stroke-linecap="round" stroke-width="2.666" d="M25.334 16H6.666M16 25.334 6.666 16 16 6.666"/></symbol><symbol id="icon-heart" viewBox="0 0 32 32"><path fill="#ff6b08" style="fill:var(--color1,#ff6b08)" d="m16 30.144-2.24-2.217C5.44 20.64 0 15.726 0 9.71 0 4.793 3.84.995 8.8.995c2.72.002 5.44 1.269 7.2 3.326A9.64 9.64 0 0 1 23.195.998h.005c4.96 0 8.8 3.801 8.8 8.711 0 6.021-5.44 10.933-13.76 18.217L16 30.145z"/></symbol><symbol id="icon-up" viewBox="0 0 48 48"><path d="m37.414 28.586-12-12a1.998 1.998 0 0 0-2.828 0l-12 12a2 2 0 1 0 2.828 2.828L24 20.828l10.586 10.586a2 2 0 1 0 2.828-2.828z"/></symbol></defs></svg>